<svg height="160" viewBox="0 0 472.325 160" width="472.325" xmlns="http://www.w3.org/2000/svg"><g transform="translate(-278.4 -134.6)"><path d="m351.6 162.1h3.542v2.952h-3.542zm-.2 5.314h3.739v19.286h-3.739z" fill="#0f2d52" fill-rule="evenodd" transform="translate(70.665 26.621)"/><path d="m363.259 168.146v15.941h-3.739v-15.941h-4.92v-3.346h13.776v3.346z" fill="#0f2d52" fill-rule="evenodd" transform="translate(73.763 29.234)"/><path d="m365.258 162.1h2.952v3.346h-2.952zm5.9 0h2.952v3.346h-2.952zm5.707 17.909a6.287 6.287 0 0 1 -.59 2.755 5.582 5.582 0 0 1 -1.574 2.165 8.125 8.125 0 0 1 -2.165 1.378 6.254 6.254 0 0 1 -2.755.394 11.615 11.615 0 0 1 -2.755-.394 8.127 8.127 0 0 1 -2.165-1.378 8.738 8.738 0 0 1 -1.574-2.165 6.286 6.286 0 0 1 -.59-2.755v-12.6h3.739v12.6a3.4 3.4 0 0 0 .984 2.558 3.326 3.326 0 0 0 4.723 0 3.741 3.741 0 0 0 .984-2.558v-12.6h3.739v12.6z" fill="#0f2d52" fill-rule="evenodd" transform="translate(81.604 26.621)"/><path d="m389.07 176.9a13.7 13.7 0 0 1 -.394 3.149 7.372 7.372 0 0 1 -1.378 2.362 5.519 5.519 0 0 1 -2.362 1.574 6.572 6.572 0 0 1 -2.952.59 6.285 6.285 0 0 1 -2.755-.59 8.235 8.235 0 0 1 -2.362-1.574 10.912 10.912 0 0 1 -1.181-1.574l-.59-1.771a6.7 6.7 0 0 1 -.2-1.968v-5.117a6.068 6.068 0 0 1 .2-1.968l.59-1.771a4.127 4.127 0 0 1 1.181-1.574 8.738 8.738 0 0 1 2.165-1.574 6.286 6.286 0 0 1 2.755-.59 11.616 11.616 0 0 1 2.755.394 21.464 21.464 0 0 1 2.165 1.181 7.069 7.069 0 0 1 1.378 1.968 11.093 11.093 0 0 1 .787 2.362h-2.952a4 4 0 0 0 -1.378-2.362 3.633 3.633 0 0 0 -4.133-.59 6.125 6.125 0 0 0 -1.181.787c-.2.2-.394.59-.59.787s-.2.59-.394 1.181c0 .394-.2.984-.2 1.574v4.714a3.836 3.836 0 0 0 .2 1.574 2.8 2.8 0 0 0 .394 1.181c.2.2.394.59.59.787a4.116 4.116 0 0 0 1.181.787 3.836 3.836 0 0 0 1.574.2 5.747 5.747 0 0 0 1.771-.394 3.531 3.531 0 0 0 1.378-.984 3.172 3.172 0 0 0 .787-1.378 4.367 4.367 0 0 0 .2-1.771v-.984h-4.133v-2.558h7.085v3.94z" fill="#0f2d52" fill-rule="evenodd" transform="translate(93.414 28.944)"/><path d="m392.256 173.4a1.475 1.475 0 0 0 -.2-.984c0-.2-.2-.59-.2-.787a2.016 2.016 0 0 0 -.984-1.181 2.121 2.121 0 0 0 -1.574-.394 5.746 5.746 0 0 0 -1.771.394 5.215 5.215 0 0 0 -.984 1.181 1.487 1.487 0 0 0 -.2.787v.984zm-6.1 1.968a3.893 3.893 0 0 0 .984 2.755 3.4 3.4 0 0 0 2.558.984 3.93 3.93 0 0 0 1.771-.394 5.981 5.981 0 0 0 1.378-.984l1.771 1.574c-.394.394-.787.59-.984.984l-1.181.59a2.845 2.845 0 0 1 -1.378.394c-.394 0-.984.2-1.574.2a8.458 8.458 0 0 1 -2.362-.394 4.084 4.084 0 0 1 -1.968-1.181 8.129 8.129 0 0 1 -1.378-2.165 8.69 8.69 0 0 1 -.394-3.346 7.938 7.938 0 0 1 1.574-5.117 5.5 5.5 0 0 1 4.33-1.771 7.34 7.34 0 0 1 2.362.394 4.285 4.285 0 0 1 1.771 1.378 5.648 5.648 0 0 1 1.181 2.165 11.613 11.613 0 0 1 .394 2.755v1.181z" fill="#0f2d52" fill-rule="evenodd" transform="translate(101.642 31.848)"/><path d="m394.539 183.893a5.448 5.448 0 0 1 -1.771-.2c-.394-.2-.787-.59-1.181-.787a1.7 1.7 0 0 1 -.59-1.181 3.348 3.348 0 0 1 -.2-1.378v-15.347h2.755v15.351a1.392 1.392 0 0 0 1.574 1.574h1.181v2.362h-1.771z" fill="#0f2d52" fill-rule="evenodd" transform="translate(108.805 29.428)"/><path d="m394.8 170.31h2.755v13.776h-2.755zm0-5.51h2.952v2.952h-2.952z" fill="#0f2d52" fill-rule="evenodd" transform="translate(112.677 29.234)"/><path d="m403.994 187.277h-2.755l1.968-3.936h2.165zm4.92-10.037a5.823 5.823 0 0 1 -.394 1.968 2.646 2.646 0 0 1 -1.181 1.378 6.992 6.992 0 0 1 -1.771.787 8.823 8.823 0 0 1 -2.362.2 15.3 15.3 0 0 1 -3.149-.394 5.071 5.071 0 0 1 -2.557-1.579l1.771-1.771a4.647 4.647 0 0 0 1.771 1.181 8.072 8.072 0 0 0 2.165.2 7.076 7.076 0 0 0 2.165-.394 1.486 1.486 0 0 0 .787-1.378 2.8 2.8 0 0 0 -.394-1.181 4.7 4.7 0 0 0 -1.378-.59l-2.165-.2a5.191 5.191 0 0 1 -2.952-.984 3.2 3.2 0 0 1 -.984-2.755 5.745 5.745 0 0 1 .394-1.771 2.645 2.645 0 0 1 1.181-1.378 3.956 3.956 0 0 1 1.574-.787 6.992 6.992 0 0 1 1.968-.394 11.616 11.616 0 0 1 2.755.394 4.692 4.692 0 0 1 2.165 1.181l-1.771 1.771a3.956 3.956 0 0 0 -1.574-.787 5.448 5.448 0 0 0 -1.771-.2 3.93 3.93 0 0 0 -1.771.394 1.7 1.7 0 0 0 -.59 1.181 1.5 1.5 0 0 0 .394.984 4.315 4.315 0 0 0 1.574.59l2.165.2c1.378.2 2.362.394 2.952 1.181a4.833 4.833 0 0 1 .984 2.952" fill="#0f2d52" fill-rule="evenodd" transform="translate(115.291 31.751)"/><path d="m409.51 183.215a5.746 5.746 0 0 1 -1.771-.394c-.394-.2-.787-.59-1.181-.787a4.117 4.117 0 0 1 -.787-1.181 3.349 3.349 0 0 1 -.2-1.378v-7.475h-1.571v-2.165h1.574v-4.135h2.755v4.133h2.558v2.167h-2.557v7.478a1.392 1.392 0 0 0 1.574 1.574h1.181v2.362h-1.575z" fill="#0f2d52" fill-rule="evenodd" transform="translate(121.583 30.105)"/><path d="m409.2 170.31h2.755v13.776h-2.755zm-.2-5.51h2.952v2.952h-2.952z" fill="#0f2d52" fill-rule="evenodd" transform="translate(126.423 29.234)"/><path d="m419.975 170.846c-.394-.394-.59-.59-.984-.59-.2-.2-.59-.2-1.181-.2a2.527 2.527 0 0 0 -1.968.787 2.96 2.96 0 0 0 -.787 2.165v8.266h-2.755v-13.774h2.755v1.574a5.434 5.434 0 0 1 1.574-1.181 3.893 3.893 0 0 1 2.165-.394 5.448 5.448 0 0 1 1.771.2 6.906 6.906 0 0 1 1.574.984z" fill="#0f2d52" fill-rule="evenodd" transform="translate(129.618 31.848)"/><path d="m434.731 181.473v-8.266a3.137 3.137 0 0 0 -.787-2.362 3.5 3.5 0 0 0 -1.968-.787 1.475 1.475 0 0 0 -.984.2 2.622 2.622 0 0 0 -.984.59 4.3 4.3 0 0 0 -.59.984 2.5 2.5 0 0 0 -.2 1.181v8.462h-2.755v-8.266a3.137 3.137 0 0 0 -.787-2.362 3.5 3.5 0 0 0 -1.968-.787 2.527 2.527 0 0 0 -1.968.787c-.59.394-.787 1.181-.787 2.362v8.266h-2.753v-13.775h2.755v1.378a4.737 4.737 0 0 1 1.574-1.181 6.991 6.991 0 0 1 1.968-.394 4.371 4.371 0 0 1 3.936 1.968 5.313 5.313 0 0 1 4.33-1.968 5.822 5.822 0 0 1 1.968.394 4.285 4.285 0 0 1 1.574.984 4.648 4.648 0 0 1 1.181 1.771 7.076 7.076 0 0 1 .394 2.165v8.659h-3.149z" fill="#0f2d52" fill-rule="evenodd" transform="translate(135.329 31.848)"/><path d="m438.453 173.4a1.475 1.475 0 0 0 -.2-.984c0-.2-.2-.59-.2-.787a2.016 2.016 0 0 0 -.984-1.181 2.121 2.121 0 0 0 -1.574-.394 5.747 5.747 0 0 0 -1.771.394 5.219 5.219 0 0 0 -.984 1.181 1.488 1.488 0 0 0 -.2.787v.984zm-6.1 1.968a3.847 3.847 0 0 0 .787 2.755 3.4 3.4 0 0 0 2.558.984 3.93 3.93 0 0 0 1.771-.394 5.981 5.981 0 0 0 1.378-.984l1.771 1.574c-.394.394-.787.59-.984.984l-1.181.59a2.844 2.844 0 0 1 -1.378.394c-.394 0-.984.2-1.574.2a8.457 8.457 0 0 1 -2.362-.394 4.083 4.083 0 0 1 -1.968-1.181 8.129 8.129 0 0 1 -1.378-2.165 8.69 8.69 0 0 1 -.394-3.346 7.938 7.938 0 0 1 1.574-5.117 5.5 5.5 0 0 1 4.33-1.771 7.34 7.34 0 0 1 2.362.394 4.285 4.285 0 0 1 1.771 1.378 3.888 3.888 0 0 1 1.181 2.165 11.616 11.616 0 0 1 .394 2.755v1.181z" fill="#0f2d52" fill-rule="evenodd" transform="translate(146.171 31.848)"/><path d="m448.059 184.087h-2.359l-6.3-19.287h2.952l4.526 13.973 4.33-13.973h3.149z" fill="#0f2d52" fill-rule="evenodd" transform="translate(155.851 29.234)"/><path d="m455.859 175.372h-3.149a2.406 2.406 0 0 0 -1.771.59 1.787 1.787 0 0 0 -.59 1.378 1.532 1.532 0 0 0 .59 1.378c.394.394.984.394 1.968.394a2.918 2.918 0 0 0 1.378-.2c.394 0 .787-.394 1.181-.59a2.612 2.612 0 0 0 .59-1.968v-.984zm0 6.1v-1.181a3.482 3.482 0 0 1 -1.574.984 6.075 6.075 0 0 1 -2.165.394 7.076 7.076 0 0 1 -2.165-.394 6.906 6.906 0 0 1 -1.574-.984 4.005 4.005 0 0 1 -1.181-2.952 3.3 3.3 0 0 1 1.181-2.755 4.811 4.811 0 0 1 3.542-1.181h3.542v-.984a2.282 2.282 0 0 0 -.787-1.968 3.419 3.419 0 0 0 -2.362-.59c-.787 0-1.378 0-1.771.394a5.217 5.217 0 0 0 -1.181.984l-1.771-1.771a5.581 5.581 0 0 1 2.165-1.574 11.614 11.614 0 0 1 2.755-.394c3.739 0 5.707 1.574 5.707 4.723v9.053h-2.362z" fill="#0f2d52" fill-rule="evenodd" transform="translate(163.402 31.848)"/><path d="m463.363 184.087-3.739-6.3-1.968 2.165v4.133h-2.756v-19.285h2.755v11.808l5.314-6.3h3.346l-4.92 5.314 5.51 8.462z" fill="#0f2d52" fill-rule="evenodd" transform="translate(170.855 29.234)"/><path d="m465.83 172.769v11.415h-2.755v-11.415h-1.575v-2.169h1.574v-2.165a3.348 3.348 0 0 1 .2-1.378 3.618 3.618 0 0 1 1.968-1.968 3.93 3.93 0 0 1 1.771-.394h1.771v2.362h-1.184a1.392 1.392 0 0 0 -1.574 1.574v1.969h2.755v2.165z" fill="#0f2d52" fill-rule="evenodd" transform="translate(177.244 29.137)"/><path d="m648.191 199.545h2.755v13.776h-2.755z" fill="#0f2d52"/><path d="m483.724 174.637v-2.362a3.837 3.837 0 0 0 -.2-1.574 2.8 2.8 0 0 0 -.394-1.181 2.719 2.719 0 0 0 -.59-.787 4.116 4.116 0 0 0 -1.181-.787 3.345 3.345 0 0 0 -3.149 0 6.124 6.124 0 0 0 -1.181.787c-.2.2-.394.59-.59.787s-.2.59-.394 1.181c0 .394-.2.984-.2 1.574v4.725a3.836 3.836 0 0 0 .2 1.574 2.8 2.8 0 0 0 .394 1.181c.2.2.394.59.59.787a4.117 4.117 0 0 0 1.181.787 4.631 4.631 0 0 0 1.574.394 3.708 3.708 0 0 0 1.574-.394 3.027 3.027 0 0 0 1.181-.787c.2-.2.394-.59.59-.787a8.212 8.212 0 0 0 .394-1.181c0-.394.2-.984.2-1.574v-2.362m2.952 0v2.562a6.066 6.066 0 0 1 -.2 1.968 6.257 6.257 0 0 1 -.59 1.771 4.126 4.126 0 0 1 -1.181 1.574 7.076 7.076 0 0 1 -2.362 1.574 6.724 6.724 0 0 1 -5.51 0 5.582 5.582 0 0 1 -2.165-1.574 4.285 4.285 0 0 1 -.984-1.574l-.59-1.771c0-.59-.2-1.378-.2-1.968v-5.117a6.066 6.066 0 0 1 .2-1.968l.59-1.771a6.9 6.9 0 0 1 .984-1.574 8.738 8.738 0 0 1 2.165-1.574 6.724 6.724 0 0 1 5.51 0 8.234 8.234 0 0 1 2.362 1.574 10.912 10.912 0 0 1 1.181 1.574l.59 1.771a6.694 6.694 0 0 1 .2 1.968v2.558" fill="#0f2d52" fill-rule="evenodd" transform="translate(188.28 29.041)"/><path d="m490.162 184.087-3.739-6.3-1.968 2.165v4.133h-2.755v-19.285h2.755v11.808l5.314-6.3h3.346l-4.92 5.314 5.51 8.462z" fill="#0f2d52" fill-rule="evenodd" transform="translate(196.798 29.234)"/><path d="m497.263 181.376v-1.376a2.866 2.866 0 0 1 -1.771 1.181 6.992 6.992 0 0 1 -1.968.394 5.822 5.822 0 0 1 -1.968-.394 3.531 3.531 0 0 1 -1.378-.984 4.024 4.024 0 0 1 -.984-1.771 7.076 7.076 0 0 1 -.394-2.165v-8.661h2.755v8.266a3.137 3.137 0 0 0 .787 2.362 3.5 3.5 0 0 0 1.968.787 1.475 1.475 0 0 0 .984-.2c.394-.2.59-.394.984-.59a4.3 4.3 0 0 0 .59-.984 2.918 2.918 0 0 0 .2-1.378v-8.263h2.755v13.776z" fill="#0f2d52" fill-rule="evenodd" transform="translate(203.671 31.945)"/><path d="m500.039 183.893a5.449 5.449 0 0 1 -1.771-.2c-.394-.2-.787-.59-1.181-.787a1.7 1.7 0 0 1 -.59-1.181 3.348 3.348 0 0 1 -.2-1.378v-15.347h2.755v15.351a1.392 1.392 0 0 0 1.574 1.574h1.181v2.362h-1.771z" fill="#0f2d52" fill-rule="evenodd" transform="translate(210.931 29.428)"/><path d="m504.039 183.893a5.449 5.449 0 0 1 -1.771-.2c-.394-.2-.787-.59-1.181-.787a1.7 1.7 0 0 1 -.59-1.181 3.348 3.348 0 0 1 -.2-1.378v-15.347h2.755v15.351a1.392 1.392 0 0 0 1.574 1.574h1.181v2.362h-1.771z" fill="#0f2d52" fill-rule="evenodd" transform="translate(214.804 29.428)"/><path d="m512.162 175.372h-3.149a2.406 2.406 0 0 0 -1.771.59 1.787 1.787 0 0 0 -.59 1.378 1.532 1.532 0 0 0 .59 1.378c.394.394.984.394 1.968.394a2.918 2.918 0 0 0 1.378-.2c.394 0 .787-.394 1.181-.59a2.612 2.612 0 0 0 .59-1.968v-.984zm0 6.1v-1.181a3.482 3.482 0 0 1 -1.574.984 6.075 6.075 0 0 1 -2.165.394 7.076 7.076 0 0 1 -2.165-.394 6.906 6.906 0 0 1 -1.574-.984 3.865 3.865 0 0 1 -.984-2.952 3.3 3.3 0 0 1 1.181-2.755 4.811 4.811 0 0 1 3.542-1.181h3.542v-.984a2.282 2.282 0 0 0 -.787-1.968 3.419 3.419 0 0 0 -2.362-.59c-.787 0-1.378 0-1.771.394a5.218 5.218 0 0 0 -1.181.984l-1.771-1.771a5.581 5.581 0 0 1 2.165-1.574 11.613 11.613 0 0 1 2.755-.394c3.739 0 5.707 1.574 5.707 4.723v9.053h-2.558z" fill="#0f2d52" fill-rule="evenodd" transform="translate(218.095 31.848)"/><path d="m518.875 170.846c-.394-.394-.59-.59-.984-.59-.2-.2-.59-.2-1.181-.2a2.527 2.527 0 0 0 -1.968.787 2.96 2.96 0 0 0 -.787 2.165v8.266h-2.755v-13.774h2.755v1.574a5.435 5.435 0 0 1 1.574-1.181 3.893 3.893 0 0 1 2.165-.394 5.45 5.45 0 0 1 1.771.2 6.906 6.906 0 0 1 1.574.984z" fill="#0f2d52" fill-rule="evenodd" transform="translate(225.355 31.848)"/><path d="m747.969 199.545h2.755v13.776h-2.755z" fill="#0f2d52"/><path d="m294.538 270.787c-10.431-15.154-16.138-35.031-16.138-56.287 0-21.058 5.707-41.132 16.138-56.089 10.43-15.154 24.6-23.813 39.951-23.813s29.52 8.659 39.951 23.813 16.138 35.031 16.138 56.089-5.707 41.132-16.138 56.285-24.6 23.813-39.951 23.813c-15.154 0-29.323-8.462-39.951-23.813" fill="#0f2d52" fill-rule="evenodd"/><path d="m323.556 260.252c-16.728 0-33.456-25.191-33.456-57.073s16.728-56.679 33.456-56.679 32.669 24.8 32.669 56.679-15.941 57.073-32.669 57.073" fill="#fff" fill-rule="evenodd" transform="translate(11.326 11.519)"/><path d="m323.556 260.252c-16.728 0-33.456-25.191-33.456-57.073s16.728-56.679 33.456-56.679 32.669 24.8 32.669 56.679-15.941 57.073-32.669 57.073z" fill="none" stroke="#fff" stroke-miterlimit="3.864" stroke-width=".501" transform="translate(11.326 11.519)"/><g fill-rule="evenodd"><path d="m286.177 174.279 1.574.2.59-3.936-1.771-.2-.2 1.968h-.394a1.985 1.985 0 0 1 -1.771-2.165c.2-.984.787-1.574 2.165-1.574a6.33 6.33 0 0 1 1.574.2 6.33 6.33 0 0 0 1.574.2c1.378.394 1.771.984 1.771 2.165a2.087 2.087 0 0 1 -1.771 1.771l-.2 2.165a3.868 3.868 0 0 0 3.936-3.542 3.152 3.152 0 0 0 -.787-2.952 3.061 3.061 0 0 0 -1.574-1.181 5.653 5.653 0 0 0 -2.362-.394 13.425 13.425 0 0 0 -2.362-.2 3.325 3.325 0 0 0 -1.968.59 4.308 4.308 0 0 0 -1.574 2.755 3.388 3.388 0 0 0 .787 3.149 14.121 14.121 0 0 0 2.755.984" fill="#fff" transform="translate(4.031 31.17)"/><path d="m282.1 178.885h1.771l.2-4.92h2.558l-.2 4.33h1.771l.2-4.133h2.362v4.92l1.771.2.2-7.085-10.433-.397z" fill="#fff" transform="translate(3.582 36.01)"/><path d="m282.3 183.782h1.771l-.2-4.92 8.659-.2v-2.162l-10.43.394z" fill="#fff" transform="translate(3.582 40.56)"/><path d="m295.289 180.2-1.771.2.2 2.165 1.771-.2zm-12.789 3.542 10.43-1.181-.2-1.968-10.43 1.181z" fill="#fff" transform="translate(3.775 44.142)"/><path d="m287.7 190.375c1.771-.2 2.558-1.378 2.558-3.346v-1.181c0-.787.2-1.378.984-1.378.394 0 .787 0 .984.394a1.5 1.5 0 0 1 .394.984 3.051 3.051 0 0 1 -.394 2.362l1.378 1.181a4.338 4.338 0 0 0 .59-3.542 4.489 4.489 0 0 0 -1.181-2.362 3.629 3.629 0 0 0 -2.558-.787c-1.574.2-2.558 1.378-2.362 3.346v1.378c0 .787-.394 1.378-.984 1.378-.787.2-1.378-.394-1.574-1.574a4.127 4.127 0 0 1 .394-2.755l-1.574-1.181a4.75 4.75 0 0 0 -.787 3.346l-1.968-.394.394 1.968h1.968a2.866 2.866 0 0 0 1.181 1.771 3.567 3.567 0 0 0 2.558.394" fill="#fff" transform="translate(3.098 46.562)"/><path d="m293.343 194.372 1.771-.394-1.968-7.478-1.771.59.59 2.558-8.265 2.362.59 1.968 8.266-2.165z" fill="#fff" transform="translate(5.131 50.24)"/><path d="m297.1 190.6-1.771.59.59 1.968 1.771-.59zm-11.808 6.3 9.84-3.542-.59-1.968-9.84 3.542z" fill="#fff" transform="translate(6.099 54.209)"/><path d="m294.456 199.594a1.2 1.2 0 0 1 -1.771-.787l-.787-1.771 2.558-1.181.787 1.771a1.612 1.612 0 0 1 -.787 1.968m-5.707 5.314 3.149-4.133a2.679 2.679 0 0 0 3.346.59 2.958 2.958 0 0 0 1.771-1.968 3.838 3.838 0 0 0 -.2-2.558l-1.574-3.739-9.643 4.33.787 1.968 3.739-1.771.59 1.378-2.952 3.542z" fill="#fff" transform="translate(6.97 56.629)"/><path d="m293.61 211.573 8.463-6.1-1.181-1.574-6.1.984 2.952-5.51-.984-1.771-8.659 6.1 1.181 1.771 4.92-3.542-1.968 3.936.787 1.181 4.33-.59-4.921 3.542z" fill="#fff" transform="translate(9.39 60.985)"/><path d="m297.02 214.9 1.181-1.378-3.346-3.346 1.771-1.968 2.952 2.952 1.181-1.378-2.952-2.952 1.771-1.771 3.346 3.542 1.378-1.378-4.92-4.92-7.282 7.675z" fill="#fff" transform="translate(13.262 65.535)"/><path d="m307.853 209.539-1.771-.984-4.92 5.314 1.181-7.085-1.968-.984-1.575 11.021 1.378.787z" fill="#fff" transform="translate(19.748 68.923)"/><path d="m308.094 215.178-2.558-.59 1.968-3.542zm2.558 4.133-1.771-11.218-1.574-.394-5.707 9.643 2.165.394.984-1.771 3.739.787.2 1.968z" fill="#fff" transform="translate(22.458 70.762)"/><path d="m316.243 218.327-4.526-6.1 3.149-4.526-2.558.2-3.149 5.117-.394-4.723-2.165.2 1.181 10.627 1.968-.2-.2-3.149.984-1.771 3.346 4.526z" fill="#fff" transform="translate(27.298 70.762)"/><path d="m318.085 207.771-.785-1.771-6.3 2.952 4.33 9.643 1.771-.787-1.771-3.936 3.936-1.771-.787-1.771-3.739 1.771-1.181-2.362z" fill="#fff" transform="translate(31.557 69.117)"/><path d="m322.375 213.756-6.1-8.856-1.574 1.181 5.9 8.856z" fill="#fff" transform="translate(35.139 68.052)"/><path d="m324.6 204.284a8.01 8.01 0 0 1 1.968 2.165 1.531 1.531 0 0 1 -.394 1.574 1.84 1.84 0 0 1 -2.558.2 14.492 14.492 0 0 1 -1.181-.984 14.509 14.509 0 0 0 -1.181-.984 1.945 1.945 0 0 1 -.394-2.755c.787-.787 1.574-.787 2.755-.2 0 .2.394.394.984.984m1.378-1.574a5.134 5.134 0 0 0 -1.968-1.378 2.424 2.424 0 0 0 -1.968-.394 3.759 3.759 0 0 0 -2.755 1.378 3.865 3.865 0 0 0 -.984 2.952 4.156 4.156 0 0 0 .787 1.968c.2.394.787.787 1.771 1.574a12.412 12.412 0 0 0 1.968 1.378 2.424 2.424 0 0 0 1.968.394 4.135 4.135 0 0 0 2.755-1.378 3.865 3.865 0 0 0 .984-2.952 4.156 4.156 0 0 0 -.787-1.968 16.09 16.09 0 0 0 -1.771-1.574" fill="#fff" transform="translate(38.624 64.142)"/><path d="m334.283 199.92-7.282.2-1.968-5.12-1.181 2.362 2.165 5.51-4.133-2.362-.984 1.771 9.25 5.314.984-1.771-2.755-1.574-.787-2.165h5.51z" fill="#fff" transform="translate(41.141 58.468)"/><path d="m332.55 192.562-6.494-2.362-.787 1.968 6.3 2.362a1.7 1.7 0 0 1 1.181 2.362 1.613 1.613 0 0 1 -2.362.984l-6.3-2.362-.787 1.968 6.494 2.362a3.155 3.155 0 0 0 2.952-.2 4.032 4.032 0 0 0 1.968-2.362 3.838 3.838 0 0 0 0-2.952 5.018 5.018 0 0 0 -2.165-1.771" fill="#fff" transform="translate(43.464 53.822)"/><path d="m336.908 186.694-1.771-.394-1.181 4.723-8.463-1.968-.394 1.968 10.234 2.362z" fill="#fff" transform="translate(45.207 50.047)"/><path d="m337.318 181.4-1.771-.2-.59 4.723-8.659-1.181-.2 2.165 10.43 1.378z" fill="#fff" transform="translate(46.174 45.11)"/><path d="m333.588 178.646v2.554l-3.739-1.574zm3.739-3.346-10.627 3.542v1.574l10.234 4.33v-2.165l-1.771-.787.2-3.739 1.968-.59z" fill="#fff" transform="translate(46.755 39.398)"/><path d="m329.882 172.652a1.67 1.67 0 0 1 1.574 1.378l.2 1.968-2.755.2-.2-1.968a1.176 1.176 0 0 1 1.181-1.574m6.888-2.952-4.33 2.755a3.052 3.052 0 0 0 -2.952-1.771 2.805 2.805 0 0 0 -2.362 1.181 2.838 2.838 0 0 0 -.59 2.558l.2 4.133 10.43-.787-.2-2.165-4.133.394-.2-1.574 3.936-2.362z" fill="#fff" transform="translate(46.525 33.977)"/><path d="m336.334 166.9-10.234 1.771.394 1.968 10.234-1.574z" fill="#fff" transform="translate(46.174 31.267)"/><path d="m306.326 203.482v-1.182h-2.755l1.968-2.362a2.719 2.719 0 0 1 .59-.787 1.183 1.183 0 0 0 .2-.787 2.166 2.166 0 1 0 -4.33 0h1.378a.9.9 0 0 1 .787-.984c.59 0 .787.394.787.984 0 .394-.2.59-.394.984l-2.757 3.152v1.181h4.526z" fill="#0f2d52" transform="translate(22.652 59.63)"/><path d="m307.552 201.414a.807.807 0 1 1 -1.574 0v-3.149a.9.9 0 0 1 .787-.984c.2 0 .59 0 .59.2.2.2.2.394.2.787zm1.378 0v-3.149a2.166 2.166 0 1 0 -4.33 0v3.149a2.228 2.228 0 0 0 3.739 1.574 1.937 1.937 0 0 0 .59-1.574" fill="#0f2d52" transform="translate(25.362 59.533)"/><path d="m310.449 201.414a.9.9 0 0 1 -.787.984c-.59 0-.787-.394-.787-.984v-3.149a.9.9 0 0 1 .787-.984c.2 0 .59 0 .59.2.2.2.2.394.2.787zm1.181 0v-3.149a2.166 2.166 0 1 0 -4.33 0v3.149a2.228 2.228 0 0 0 3.739 1.574 1.937 1.937 0 0 0 .59-1.574" fill="#0f2d52" transform="translate(27.976 59.533)"/><path d="m313.052 201.414a.9.9 0 0 1 -.787.984c-.59 0-.787-.394-.787-.984v-3.149a.9.9 0 0 1 .787-.984c.2 0 .59 0 .59.2.2.2.2.394.2.787zm1.378 0v-3.149a2.166 2.166 0 1 0 -4.33 0v3.149a2.228 2.228 0 0 0 3.739 1.574 1.937 1.937 0 0 0 .59-1.574" fill="#0f2d52" transform="translate(30.686 59.533)"/><path d="m314.237 140.752-.2-2.952-9.84.2v2.952h3.346l.2 10.824 3.346-.2-.2-10.627z" fill="#fff" transform="translate(24.975 3.098)"/><path d="m319.878 149.147 1.968-5.9-3.149-1.181-1.968 5.707c-.394 1.181-1.181 1.771-2.362 1.378s-1.378-1.378-.984-2.558l1.968-5.707-3.151-1.186-1.968 5.9a5.4 5.4 0 0 0 .2 3.936 5.461 5.461 0 0 0 2.952 2.558 6.7 6.7 0 0 0 3.936 0 5.462 5.462 0 0 0 2.558-2.952" fill="#fff" transform="translate(30.551 4.937)"/><path d="m312.184 137.8-.984 2.558 3.149 1.181.984-2.755z" fill="#fff" transform="translate(31.751 3.098)"/><path d="m315.287 138.9-.787 2.755 3.149 1.181.787-2.755z" fill="#fff" transform="translate(34.945 4.163)"/><path d="m299.6 139.281.984 2.755 3.149-1.181-.984-2.755zm8.266 12.989-3.739-10.234-3.149 1.181 3.739 10.234z" fill="#fff" transform="translate(20.522 3.388)"/></g><path d="m341 182.611a29.778 29.778 0 0 0 2.558-9.643c.59-8.659-1.378-15.941-4.92-16.138a1.774 1.774 0 0 0 -.984.2c-2.165 1.378-3.346 2.165-5.707 3.936-.787-2.952-1.378-5.707-1.771-7.478-.2-.59-.59-.984-.984-.984a1.774 1.774 0 0 0 -.984.2c-4.526 3.346-17.122 14.76-17.515 32.866v2.165a3.444 3.444 0 0 1 -.984.2c.2-2.165-.394-4.33-2.165-5.314a6.643 6.643 0 0 0 -3.936-.394 4.313 4.313 0 0 0 -1.574.59c-.394.2-.984-.394-.787-1.574s-.59-1.181-.984-.984a15.982 15.982 0 0 0 -1.968 1.771.686.686 0 0 1 -1.181-.394c0-.59-.984-.2-1.574.394s-3.936 3.346-3.936 3.346l.394.59 4.128-2.966.59.787-2.558 1.968.394.59 2.952-1.771.984.984-.2.59a2.938 2.938 0 0 0 -.59 1.968c-1.181 2.952-.59 6.1 1.574 7.282 1.771.984 3.936.59 5.9-.59v.59l-.2.59a38.647 38.647 0 0 0 -3.936 2.755 5.562 5.562 0 0 0 -.984 1.181s-.787 4.133-1.181 5.51-1.181 3.542-.984 4.133a1.589 1.589 0 0 0 1.771.787c.394-.2.2-.787.394-1.574s1.378-6.1 1.574-7.085c.394-1.181 1.968-2.362 2.755-2.952.59-.394.984-.787 1.378-.984.2.2.394.394.59.394a.687.687 0 0 1 -.2.394s-1.378 1.181-1.968 1.574a3.524 3.524 0 0 0 -.984 1.378s-.59 3.542-.787 4.92-1.181 4.133-1.181 5.117 1.181 1.378 1.574 1.771c.394.2.394-1.574.787-2.558a73.76 73.76 0 0 0 1.771-7.675c.2-1.378.59-1.378 1.181-1.968a17.386 17.386 0 0 1 2.165-1.574 3.964 3.964 0 0 0 1.181.394c.394 0 .394.787.394.787l-1.771 1.181c-.59.394 0 1.574.394 2.362.2.787.59 5.9.787 7.872 0 1.968 1.181 1.771 1.574 1.771.59 0 .2-.59.2-1.968 0-1.574-.394-6.494-.59-7.478-.2-1.181-.2-1.968.2-2.165a18.465 18.465 0 0 1 2.362-1.771.728.728 0 0 1 .59.394 10.628 10.628 0 0 1 -1.574 1.574c-.984.59-.394 1.771-.394 2.558s.394 7.085.394 8.462.787 1.378 1.378 1.574.59-.394.59-1.378-.59-8.462-.59-9.053 1.181-1.968 1.968-2.952 1.378-1.181 1.968-.787a.875.875 0 0 1 .394.984s-1.181 2.558-1.574 3.149a2.817 2.817 0 0 0 -.59 2.165 33.793 33.793 0 0 1 1.378 6.691c.394 2.755.787 10.824.787 12.2a5.266 5.266 0 0 0 1.378 3.346c.59.394 2.165 2.165 2.755 1.771.787-.394-.2-1.771-.59-2.165a6.8 6.8 0 0 1 -1.378-2.362 76.228 76.228 0 0 1 -.394-8.266 72.412 72.412 0 0 0 -1.181-9.25c-.2-1.181-.394-3.739.59-4.92s1.181-.2 1.181-.2l-.394 3.346c-.2.984.394 3.936.787 6.1.394 1.968.787 10.824.787 12a3.1 3.1 0 0 0 .59 2.558c.394.59 1.378 3.149 1.968 4.133a1.612 1.612 0 0 0 2.362.787c.787-.394-1.181-3.149-1.968-4.133s-.984-3.149-1.181-5.707a44.057 44.057 0 0 1 0-5.117 5.442 5.442 0 0 0 2.558 2.165v1.378a3.721 3.721 0 0 0 2.362 2.755 5.449 5.449 0 0 0 -.2 1.771 3.208 3.208 0 0 0 2.165 2.558 9.582 9.582 0 0 0 4.133.394 8.555 8.555 0 0 0 3.936-1.378 2.944 2.944 0 0 0 1.181-2.952 3.759 3.759 0 0 0 -.59-1.574c.394-.2.59-.394.984-.59a3.39 3.39 0 0 0 1.181-3.542 3.346 3.346 0 0 0 -1.181-1.968 8.561 8.561 0 0 0 1.378-1.181 4.289 4.289 0 0 0 .787-4.33 4.654 4.654 0 0 0 -2.362-2.755l.394-.394a4.158 4.158 0 0 0 .394-4.526 5.635 5.635 0 0 0 -4.133-3.149 4.393 4.393 0 0 0 -.394-4.133 6.337 6.337 0 0 0 -6.1-2.165c5.51-3.739 9.643-8.659 11.021-11.808m-29.127 3.149c.394-15.744 10.43-26.371 15.547-30.7l1.181-.984.394 1.574c.394 1.771.984 3.936 1.574 6.494-5.9 5.117-12.989 13.383-14.76 25.387v.59a37.562 37.562 0 0 0 -3.936-.394v-1.968m-13.579-2.952c.59-.394 1.771-.394 1.574.394a5.506 5.506 0 0 0 -.2 1.181l-1.181-.2c.2-.2-.59-.984-.2-1.378m1.968 10.037c-2.165-1.181-2.558-3.739-.787-6.3s4.723-3.739 6.888-2.558 2.558 4.133.787 6.691a5.332 5.332 0 0 1 -6.888 2.165m22.256 20.686v-.984l.394.2a1.492 1.492 0 0 0 -.394.787m13.579 11.808a7.389 7.389 0 0 1 -2.755.984 6.7 6.7 0 0 1 -2.952-.2 1.385 1.385 0 0 1 -.787-.984c-.2-.59.394-1.181 1.378-1.378h1.968a5.822 5.822 0 0 0 1.968-.394h.394a1.48 1.48 0 0 1 1.378.984 1.083 1.083 0 0 1 -.591.984m1.378-5.117a7.408 7.408 0 0 1 -4.33 1.574 9.514 9.514 0 0 1 -4.723 0 1.774 1.774 0 0 1 -1.181-1.181 1.622 1.622 0 0 1 1.378-1.968h.59a19.158 19.158 0 0 0 3.149-.2 11.88 11.88 0 0 0 3.149-.984.687.687 0 0 0 .394-.2 1.622 1.622 0 0 1 1.968 1.378c.394.59 0 1.181-.394 1.574m1.771-9.053a3.221 3.221 0 0 1 -.394 2.362c-.984 1.181-3.149 2.362-5.9 3.346-2.558.787-5.117 1.181-6.691.787a2.4 2.4 0 0 1 -1.771-1.574 2.291 2.291 0 0 1 1.574-2.952c.2 0 .394-.2.59-.2a23.565 23.565 0 0 0 4.723-.787 30.691 30.691 0 0 0 4.33-1.968c.2-.2.394-.2.59-.394a2.189 2.189 0 0 1 2.952 1.378m-1.378-7.478a2.484 2.484 0 0 1 -.2 2.362c-.984 1.378-3.149 2.755-5.707 3.739a14.183 14.183 0 0 1 -6.888 1.378 2.615 2.615 0 0 1 -1.968-1.574 2.256 2.256 0 0 1 1.378-3.149.723.723 0 0 1 .59-.2 27.493 27.493 0 0 0 4.723-1.181 28.557 28.557 0 0 0 4.33-2.362c.2-.2.394-.2.59-.394a2.754 2.754 0 0 1 3.149 1.378m-7.675-6.888.394-.394a2.167 2.167 0 0 1 2.952.59 1.81 1.81 0 0 1 .2 1.968 12.506 12.506 0 0 1 -3.936 4.133 10.424 10.424 0 0 1 -5.314 2.165 2.466 2.466 0 0 1 -2.165-1.181 2.85 2.85 0 0 1 .2-2.165l.59-.59a.723.723 0 0 1 .59-.2 15.748 15.748 0 0 0 6.495-4.33m-9.25 4.33c-.59.2-.984-.59-.984-1.181.2-.394 0-.787-.394-.59a.981.981 0 0 1 -1.378-.2 1.5 1.5 0 0 1 -.394-1.771c-1.181.394-3.739 1.378-6.1.59a1.242 1.242 0 0 1 -.394-1.771 10.82 10.82 0 0 1 -3.149.59c-.787 0-2.558-.2-1.771-2.362.787-2.558 1.968-4.33 4.723-5.117a9.958 9.958 0 0 1 4.33.2c-.59 4.723-.394 5.9 3.739 6.691 3.739.59 7.282-1.574 10.037-.984 1.575.787-3.936 4.33-8.266 5.9m-2.558-6.691c-.2-.787 0-2.165.787-4.526 3.936-13.383 15.351-18.106 20.861-19.68l.394-.2-.394.2c-5.707 1.181-17.515 5.314-22.042 18.3-.394.984-.59 1.968-.787 2.558a29.391 29.391 0 0 1 .394-3.346c2.362-15.547 13.776-24.8 19.483-28.536l1.771-.984c.787 0 1.771.984 2.558 3.936a34.929 34.929 0 0 1 .984 10.824c-.2 3.739-.984 5.707-2.558 9.053-2.755 5.314-12.2 13.186-21.451 12.4" fill="#0f2d52" transform="translate(12.778 17.328)"/><path d="m299.166 169.212a2.342 2.342 0 0 0 -2.755 1.968c-.2 1.181.984 2.362 2.362 2.558a2.342 2.342 0 0 0 2.755-1.968c.2-1.378-.984-2.362-2.362-2.558m-.59 2.755c-.59 0-.984-.59-.787-.984 0-.394.59-.787.984-.787a1.054 1.054 0 0 1 .984.984c-.2.59-.59.984-1.181.787" fill="#0f2d52" transform="translate(17.414 33.481)"/><path d="m406.124 135.978h2.755v158.032h-2.755z" fill="#ef8122"/><path d="m360.859 188.95a12.241 12.241 0 0 1 -.2 3.149 6.157 6.157 0 0 1 -.984 1.968 4.644 4.644 0 0 1 -3.149 1.378 3.67 3.67 0 0 1 -3.149-1.378 2.733 2.733 0 0 1 -.984-1.968c0-.59-.2-1.574-.2-3.149a12.241 12.241 0 0 1 .2-3.149 6.157 6.157 0 0 1 .984-1.968 4.644 4.644 0 0 1 3.149-1.378 3.916 3.916 0 0 1 3.149 1.378 2.733 2.733 0 0 1 .984 1.968 12.242 12.242 0 0 1 .2 3.149zm-1.378 0a8.946 8.946 0 0 0 -.2-2.755 3.052 3.052 0 0 0 -5.9 0c0 .394-.2 1.378-.2 2.755a8.946 8.946 0 0 0 .2 2.755 3.052 3.052 0 0 0 5.9 0 8.229 8.229 0 0 0 .201-2.755zm-4.33-7.675h-1.181v-1.575h1.181zm3.739 0h-1.18v-1.575h1.181z" fill="#434a52" transform="translate(71.44 43.658)"/><path d="m363.9 192.056h-6.3v-1.181l4.92-6.494h-4.526v-1.181h6.1v1.181l-4.92 6.494h4.92v1.181z" fill="#434a52" transform="translate(76.667 47.046)"/><path d="m368.785 187.923h-5.9a3.535 3.535 0 0 0 .59 2.165 2.422 2.422 0 0 0 1.968.984 4.089 4.089 0 0 0 2.362-.984l.787.787a4.543 4.543 0 0 1 -1.378.984 3.929 3.929 0 0 1 -1.771.394 3.107 3.107 0 0 1 -2.952-1.378 6.691 6.691 0 0 1 0-6.3 2.978 2.978 0 0 1 2.755-1.378 3.3 3.3 0 0 1 2.754 1.184 4.743 4.743 0 0 1 .787 2.952v.59zm-1.181-.984a11.1 11.1 0 0 0 -.2-1.378 2.14 2.14 0 0 0 -1.968-1.378 1.765 1.765 0 0 0 -1.968 1.378 2.918 2.918 0 0 0 -.2 1.378z" fill="#434a52" transform="translate(80.636 47.046)"/><path d="m369.649 193.9h-.984a1.937 1.937 0 0 1 -1.574-.59 2.406 2.406 0 0 1 -.59-1.771v-10.239h1.181v10.234a1.044 1.044 0 0 0 1.181 1.181h.787v1.185z" fill="#434a52" transform="translate(85.283 45.207)"/><path d="m379.072 193.9h-7.872v-12.6h7.872v1.181h-6.494v4.526h5.51v1.181h-5.51v4.526h6.494z" fill="#434a52" transform="translate(89.832 45.207)"/><path d="m383.682 193.9h-1.574l-2.755-4.526-1.771 1.968v2.558h-1.182v-12.6h1.181v8.462l3.936-4.526h1.574l-2.952 3.346z" fill="#434a52" transform="translate(94.866 45.207)"/><path d="m386.9 184.084-.984.984a2.166 2.166 0 0 0 -3.739 1.574v5.314h-1.177v-8.656h1.181v.984a2.806 2.806 0 0 1 2.362-1.181 3.76 3.76 0 0 1 2.357.981z" fill="#434a52" transform="translate(99.319 46.949)"/><path d="m391.585 187.923h-5.9a3.536 3.536 0 0 0 .59 2.165 2.422 2.422 0 0 0 1.968.984 4.089 4.089 0 0 0 2.362-.984l.787.787a4.542 4.542 0 0 1 -1.378.984 3.929 3.929 0 0 1 -1.771.394 3.107 3.107 0 0 1 -2.952-1.378 6.692 6.692 0 0 1 0-6.3 2.978 2.978 0 0 1 2.755-1.378 3.3 3.3 0 0 1 2.755 1.181 4.743 4.743 0 0 1 .787 2.952v.59zm-1.378-.984a11.094 11.094 0 0 0 -.2-1.378 2.14 2.14 0 0 0 -1.968-1.378 1.765 1.765 0 0 0 -1.968 1.378 2.918 2.918 0 0 0 -.2 1.378z" fill="#434a52" transform="translate(102.707 47.046)"/><path d="m401.8 191.959h-1.378v-5.314c0-1.574-.787-2.362-2.165-2.362a2.032 2.032 0 0 0 -2.165 2.165v5.51h-1.182v-5.314c0-1.574-.787-2.362-2.165-2.362a1.937 1.937 0 0 0 -1.574.59 2.406 2.406 0 0 0 -.59 1.771v5.314h-1.181v-8.657h1.181v.984a2.811 2.811 0 0 1 2.558-.984 2.978 2.978 0 0 1 2.755 1.378 3.311 3.311 0 0 1 2.952-1.378 3.259 3.259 0 0 1 2.362.984 3.137 3.137 0 0 1 .787 2.362v5.314z" fill="#434a52" transform="translate(107.45 47.143)"/><path d="m407.072 193.9h-7.872v-12.6h7.872v1.181h-6.494v4.526h5.51v1.181h-5.51v4.526h6.494z" fill="#434a52" transform="translate(116.937 45.207)"/><path d="m407.549 193.9h-.984a1.937 1.937 0 0 1 -1.574-.59 2.406 2.406 0 0 1 -.59-1.771v-10.239h1.181v10.234a1.044 1.044 0 0 0 1.181 1.181h.787v1.185z" fill="#434a52" transform="translate(121.971 45.207)"/><path d="m413.588 192.35a4.266 4.266 0 0 1 -.984 2.755 3.2 3.2 0 0 1 -2.755.984 4.005 4.005 0 0 1 -2.952-1.181l.787-.787a1.8 1.8 0 0 0 .984.59c.2.2.59.2 1.181.2a1.918 1.918 0 0 0 1.771-.787 2.938 2.938 0 0 0 .59-1.968v-1.378a2.805 2.805 0 0 1 -2.362 1.181c-2.165 0-3.149-1.574-3.149-4.526s.984-4.33 3.149-4.33a2.806 2.806 0 0 1 2.362 1.181v-.984h1.378zm-1.378-4.723a5.266 5.266 0 0 0 -.394-2.165 1.721 1.721 0 0 0 -1.771-.984 1.845 1.845 0 0 0 -1.771.984 6.15 6.15 0 0 0 0 4.33 1.721 1.721 0 0 0 1.771.984 2.067 2.067 0 0 0 1.771-.984c.394-.392.394-1.182.394-2.166z" fill="#434a52" transform="translate(124.197 46.949)"/><path d="m412.978 182.578h-1.378v-1.378h1.378zm0 11.415h-1.178v-8.659h1.181z" fill="#434a52" transform="translate(128.94 45.11)"/><path d="m420.588 191.959h-1.378v-5.314c0-1.574-.787-2.362-2.165-2.362a1.937 1.937 0 0 0 -1.574.59 2.406 2.406 0 0 0 -.59 1.771v5.314h-1.181v-8.658h1.181v.984a2.649 2.649 0 0 1 2.362-.984 2.783 2.783 0 0 1 3.149 3.149v5.51z" fill="#434a52" transform="translate(130.973 47.143)"/><path d="m425.982 193.9h-1.574l-2.755-4.526-1.771 1.968v2.558h-1.182v-12.6h1.181v8.462l3.936-4.526h1.574l-2.952 3.346z" fill="#434a52" transform="translate(135.813 45.207)"/><path d="m429.888 191.959h-1.181v-.787a3.4 3.4 0 0 1 -2.558.984c-2.165 0-3.149-.787-3.149-2.558a2.422 2.422 0 0 1 .984-1.968 3.535 3.535 0 0 1 2.165-.59h2.558v-.787c0-1.378-.787-1.968-2.165-1.968a2.539 2.539 0 0 0 -2.165.984l-.787-.787a2.278 2.278 0 0 1 1.378-.984 4.368 4.368 0 0 1 1.771-.2q3.542 0 3.542 2.952v5.707zm-1.378-3.149v-.984h-2.362c-1.378 0-1.968.59-1.968 1.574s.59 1.574 1.968 1.574a2.612 2.612 0 0 0 1.968-.59 2.121 2.121 0 0 0 .394-1.574z" fill="#434a52" transform="translate(139.976 47.143)"/><path d="m434.788 191.959h-1.378v-5.314c0-1.574-.787-2.362-2.165-2.362a1.937 1.937 0 0 0 -1.574.59 2.4 2.4 0 0 0 -.59 1.771v5.314h-1.181v-8.658h1.181v.984a2.649 2.649 0 0 1 2.362-.984 2.783 2.783 0 0 1 3.149 3.149v5.51z" fill="#434a52" transform="translate(144.719 47.143)"/><path d="m442.872 193.9h-7.872v-12.6h1.378v11.414h6.494z" fill="#434a52" transform="translate(151.592 45.207)"/><path d="m441.278 182.578h-1.378v-1.378h1.378zm-.2 11.415h-1.178v-8.659h1.181z" fill="#434a52" transform="translate(156.335 45.11)"/><path d="m448.685 189.4a2.469 2.469 0 0 1 -1.181 2.165 4.2 4.2 0 0 1 -2.362.59 4.811 4.811 0 0 1 -3.542-1.181l.787-.787a3.893 3.893 0 0 0 2.755.984c1.574 0 2.362-.59 2.362-1.574 0-.787-.394-1.181-1.378-1.181l-1.378-.2c-1.771-.2-2.558-.984-2.558-2.362a2.422 2.422 0 0 1 .984-1.968 3.967 3.967 0 0 1 2.165-.59 5.008 5.008 0 0 1 3.149.984l-.787.787a4.22 4.22 0 0 0 -2.362-.787c-1.378 0-1.968.394-1.968 1.378 0 .787.59 1.181 1.574 1.181l1.378.2a2.172 2.172 0 0 1 2.362 2.361z" fill="#434a52" transform="translate(157.981 47.143)"/><path d="m453.185 187.923h-5.9a3.536 3.536 0 0 0 .59 2.165 2.422 2.422 0 0 0 1.968.984 4.089 4.089 0 0 0 2.362-.984l.787.787a4.543 4.543 0 0 1 -1.378.984 3.93 3.93 0 0 1 -1.771.394 3.107 3.107 0 0 1 -2.952-1.378 6.692 6.692 0 0 1 0-6.3 2.978 2.978 0 0 1 2.755-1.378 3.3 3.3 0 0 1 2.755 1.181 4.743 4.743 0 0 1 .787 2.952zm-1.378-.984a11.1 11.1 0 0 0 -.2-1.378 2.14 2.14 0 0 0 -1.968-1.378 1.765 1.765 0 0 0 -1.968 1.378 2.918 2.918 0 0 0 -.2 1.378z" fill="#434a52" transform="translate(162.337 47.046)"/><path d="m457.585 189.4a2.469 2.469 0 0 1 -1.181 2.165 4.2 4.2 0 0 1 -2.362.59 4.811 4.811 0 0 1 -3.542-1.181l.787-.787a3.893 3.893 0 0 0 2.755.984c1.574 0 2.362-.59 2.362-1.574 0-.787-.394-1.181-1.378-1.181l-1.378-.2c-1.771-.2-2.558-.984-2.558-2.362a2.422 2.422 0 0 1 .984-1.968 3.967 3.967 0 0 1 2.165-.59 5.007 5.007 0 0 1 3.149.984l-.787.787a4.22 4.22 0 0 0 -2.362-.787c-1.378 0-1.968.394-1.968 1.378 0 .787.59 1.181 1.574 1.181l1.378.2a2.087 2.087 0 0 1 2.362 2.361z" fill="#434a52" transform="translate(166.596 47.143)"/><path d="m456.578 182.578h-1.378v-1.378h1.378zm0 11.415h-1.178v-8.659h1.181z" fill="#434a52" transform="translate(171.146 45.11)"/></g></svg>